<svg xmlns="http://www.w3.org/2000/svg" xmlns:xlink="http://www.w3.org/1999/xlink" width="93" height="100"><defs><linearGradient id="b" x1="50%" x2="50%" y1="95.423%" y2="0%"><stop offset="0%" stop-color="#3967FF"/><stop offset="100%" stop-color="#B500FE"/></linearGradient><linearGradient id="f" x1="50%" x2="50%" y1="0%" y2="100%"><stop offset="0%" stop-color="#3967FF"/><stop offset="100%" stop-color="#B500FE"/></linearGradient><linearGradient id="g" x1="50%" x2="50%" y1="0%" y2="100%"><stop offset="0%" stop-color="#1C98FF"/><stop offset="100%" stop-color="#574AE4"/></linearGradient><linearGradient id="h" x1="50%" x2="50%" y1="0%" y2="100%"><stop offset="0%" stop-color="#F900B8"/><stop offset="100%" stop-color="#AE48C0"/></linearGradient><linearGradient id="j" x1="100%" x2="26.765%" y1="15.127%" y2="100%"><stop offset="0%" stop-color="#FF4695"/><stop offset="100%" stop-color="#CC34E7"/></linearGradient><path id="a" d="M29.861 0c16.492 0 29.861 13.37 29.861 29.861 0 16.492-13.37 29.861-29.86 29.861C13.368 59.722 0 46.352 0 29.862 0 13.368 13.37 0 29.861 0zm0 10.694c-10.585 0-19.167 8.582-19.167 19.167 0 10.586 8.582 19.167 19.167 19.167 10.586 0 19.167-8.581 19.167-19.167 0-10.585-8.581-19.167-19.167-19.167z"/><path id="e" d="M29.886 18.608l17.664 35.33a29.727 29.727 0 01-17.664 5.782 29.727 29.727 0 01-17.664-5.783l17.664-35.329z"/><filter id="d" width="262.8%" height="281.6%" x="-81.4%" y="-100.8%" filterUnits="objectBoundingBox"><feMorphology in="SourceAlpha" operator="dilate" radius=".5" result="shadowSpreadOuter1"/><feOffset in="shadowSpreadOuter1" result="shadowOffsetOuter1"/><feGaussianBlur in="shadowOffsetOuter1" result="shadowBlurOuter1" stdDeviation="9"/><feColorMatrix in="shadowBlurOuter1" values="0 0 0 0 0.0392156863 0 0 0 0 0.0509803922 0 0 0 0 0.145098039 0 0 0 1 0"/></filter><circle id="i" cx="30" cy="24.444" r="5.278"/></defs><g fill="none" fill-rule="evenodd"><path fill="#D8D8D8" d="M87.87 84.992v1.76h-1.767v1.926h1.767v1.761h1.933v-1.761h1.767v-1.926h-1.767v-1.76z"/><path fill="#CFCEDC" d="M3 98.472h2.187V86.886H3zm13.054-4.305c-.22.792-.57 1.395-1.038 1.792-.47.4-1.054.594-1.781.594-1.059 0-1.85-.334-2.421-1.022-.569-.685-.857-1.682-.857-2.963 0-1.173.294-2.1.875-2.759.584-.662 1.37-.985 2.403-.985.73 0 1.327.19 1.825.578.498.388.823.932.992 1.662l.024.102h2.433l-.019-.149c-.165-1.28-.721-2.301-1.653-3.033-.928-.729-2.14-1.098-3.602-1.098-1.818 0-3.258.53-4.28 1.573-1.023 1.044-1.542 2.521-1.542 4.391 0 1.779.52 3.176 1.544 4.152 1.022.975 2.475 1.47 4.318 1.47.887 0 1.702-.15 2.42-.444a4.698 4.698 0 001.884-1.378l.026-.032a.536.536 0 01.017-.018l.026-.03c.24-.307.425-.648.544-1.004.116-.35.217-.802.298-1.344l.023-.151H16.08l-.027.096zm12.117 1.355c-.558.68-1.33 1.011-2.36 1.011-1.031 0-1.807-.328-2.37-1.002-.563-.672-.848-1.628-.848-2.842 0-1.227.285-2.19.847-2.862.565-.675 1.34-1.003 2.371-1.003 1.004 0 1.77.325 2.341.994.568.665.856 1.604.856 2.79 0 1.254-.281 2.235-.837 2.914m-2.36-8.636c-1.777 0-3.196.519-4.22 1.542-1.022 1.023-1.541 2.457-1.541 4.26 0 1.792.519 3.215 1.542 4.232 1.022 1.016 2.442 1.532 4.219 1.532 1.777 0 3.193-.516 4.21-1.532 1.015-1.017 1.53-2.44 1.53-4.231 0-1.804-.515-3.237-1.53-4.26-1.017-1.024-2.434-1.543-4.21-1.543m13.51.054c-1.699 0-2.76.72-3.138 1.03l-.524.43v-1.41h-2.402v11.495h2.421v-7.038c0-.617.21-1.223.575-1.663.475-.572 1.203-.874 2.105-.874.92 0 1.622.286 2.09.852.359.436.557 1.034.557 1.685v7.038h2.402v-7.647c0-2.15-1.833-3.898-4.087-3.898m6.674-1.842v1.797h-1.61v2.09h1.553v9.446h2.402v-9.445h2.119v-2.091H48.39V85.77c0-.618.465-.941.924-.941h1.164v-1.94h-2.33a2.16 2.16 0 00-2.155 2.209m13.208 10.424c-.557.68-1.33 1.011-2.36 1.011-1.03 0-1.806-.328-2.37-1.002-.562-.672-.847-1.628-.847-2.842 0-1.227.285-2.19.847-2.862.564-.675 1.34-1.003 2.37-1.003 1.005 0 1.77.325 2.342.994.568.665.856 1.604.856 2.79 0 1.254-.282 2.235-.838 2.914m-2.36-8.636c-1.776 0-3.196.519-4.219 1.542-1.023 1.023-1.542 2.457-1.542 4.26 0 1.792.52 3.215 1.542 4.232 1.023 1.016 2.442 1.532 4.22 1.532 1.776 0 3.192-.516 4.209-1.532 1.016-1.017 1.531-2.44 1.531-4.231 0-1.804-.515-3.237-1.531-4.26-1.017-1.024-2.433-1.543-4.21-1.543m22.803-2.362h-2.382v2.382H75.42v2.08h1.844v7.303c0 1.03.84 2.142 2.194 2.142l2.036-.001v-1.856h-.946a.879.879 0 01-.902-.895v-6.693h1.848v-2.08h-1.848v-2.382zm-9.621 2.416c-1.698 0-2.76.72-3.137 1.03l-.525.43v-1.41H63.96v11.495h2.422v-7.038c0-.617.21-1.223.574-1.663.476-.572 1.204-.874 2.106-.874.919 0 1.621.286 2.089.852.359.436.557 1.034.557 1.685v7.038h2.402v-7.647c0-2.15-1.833-3.898-4.086-3.898"/><g transform="rotate(-135 39.448 33.913)"><mask id="c" fill="#fff"><use xlink:href="#a"/></mask><use fill="url(#b)" xlink:href="#a"/><g mask="url(#c)"><use fill="#000" filter="url(#d)" xlink:href="#e"/><use fill="url(#f)" xlink:href="#e"/></g><path fill="url(#g)" d="M30 33.51c2.386 0 4.542-.933 6.081-2.435L47.55 54.013a29.727 29.727 0 01-17.664 5.782 29.727 29.727 0 01-17.664-5.782l11.545-23.09c1.548 1.591 3.767 2.588 6.233 2.588z"/><use fill="url(#h)" xlink:href="#i"/><use fill="url(#j)" xlink:href="#i"/></g></g></svg>