<svg xmlns="http://www.w3.org/2000/svg" viewBox="0 0 403.44 55.56"><defs><style>.cls-1{fill:#6eb2bd;}.cls-2{fill:#666764;}.cls-3{fill:#6d6d6a;}</style></defs><title>资源 1</title><g id="图层_2" data-name="图层 2"><g id="图层_1-2" data-name="图层 1"><path class="cls-1" d="M70.66,8A59.09,59.09,0,0,0,45.71,2.08a.09.09,0,0,0-.07,0,.08.08,0,0,0,0,.08,30,30,0,0,1,8.6,16.91.06.06,0,0,0,.05.06s0,0,0,0l.05,0A66,66,0,0,1,70.66,8.09a.08.08,0,0,0,0-.06.08.08,0,0,0,0-.07"/><path class="cls-1" d="M99.51.05a.06.06,0,0,0-.06,0A61.42,61.42,0,0,0,54.58,24.83a.07.07,0,0,0,.06.11h0l27.28-2.39a.07.07,0,0,0,.06,0A60.59,60.59,0,0,1,99.49.13a.06.06,0,0,0,0-.08"/><path class="cls-2" d="M22.69,32.58l-2.8,7.73-6.58.49,2.78-7.64-8.2.72L0,55.56H7.94l3.14-8.62,6.5-.3-3.24,8.92h7.94L30.9,31.87l-8.21.71M61.37,29.2,52.46,30l-9.3,25.58h8.2l5.7-17.33,5.71,17.33H71ZM37.45,31.29,28.62,55.56h8.2l9.1-25Z"/><polyline class="cls-2" points="114.3 43.87 114.3 48.29 118.42 48.29 118.42 43.87 120.91 43.87 120.91 55.37 118.42 55.37 118.42 50.56 114.3 50.56 114.3 55.37 111.81 55.37 111.81 43.87 114.3 43.87"/><path class="cls-2" d="M126.06,52.42l-.79,2.95H122.7l3.36-11.5h3.28l3.44,11.5h-2.7l-.86-2.95h-3.16m2.8-1.94L128.17,48c-.19-.69-.39-1.54-.55-2.22h0c-.17.68-.33,1.55-.51,2.22l-.66,2.44Z"/><path class="cls-2" d="M134.64,55.37V43.87h2.92l2.3,4.22a38,38,0,0,1,1.8,3.94h0c-.15-1.52-.2-3.08-.2-4.82V43.87h2.3v11.5h-2.62l-2.37-4.43a40,40,0,0,1-1.91-4.07h-.07c.08,1.54.12,3.16.12,5v3.46h-2.3"/><path class="cls-2" d="M155.58,54.84a12,12,0,0,1-3.69.65A6.07,6.07,0,0,1,147.4,54a5.88,5.88,0,0,1-1.56-4.19c0-3.83,2.69-6,6.32-6a7.61,7.61,0,0,1,3.06.55l-.52,2.1a5.62,5.62,0,0,0-2.56-.5,3.41,3.41,0,0,0-3.67,3.72c0,2.39,1.44,3.77,3.49,3.77a3.46,3.46,0,0,0,1.21-.16V50.82h-1.7v-2h4.11v6.06"/><polyline class="cls-2" points="157.25 53.97 162.51 46.09 162.51 46.02 157.72 46.02 157.72 43.87 165.74 43.87 165.74 45.37 160.59 53.16 160.59 53.22 165.82 53.22 165.82 55.37 157.25 55.37 157.25 53.97"/><polyline class="cls-2" points="170.3 43.87 170.3 48.29 174.42 48.29 174.42 43.87 176.91 43.87 176.91 55.37 174.42 55.37 174.42 50.56 170.3 50.56 170.3 55.37 167.81 55.37 167.81 43.87 170.3 43.87"/><path class="cls-2" d="M189.6,49.5c0,3.79-2.18,6.06-5.42,6.06S179,53,179,49.69c0-3.45,2.13-6,5.38-6s5.24,2.64,5.24,5.83m-8,.14c0,2.27,1,3.86,2.69,3.86S187,51.82,187,49.59s-.93-3.86-2.65-3.86S181.62,47.4,181.62,49.64Z"/><path class="cls-2" d="M194.13,43.87v6.61c0,2,.74,3,2,3s2-1,2-3V43.87h2.49v6.45c0,3.55-1.72,5.24-4.61,5.24s-4.41-1.62-4.41-5.27V43.87h2.49"/><rect class="cls-2" x="206.95" y="43.87" width="2.5" height="11.5"/><path class="cls-2" d="M212,55.37V43.87h2.93l2.29,4.22A38.06,38.06,0,0,1,219,52h0c-.15-1.52-.2-3.08-.2-4.82V43.87h2.3v11.5h-2.63l-2.36-4.43a40,40,0,0,1-1.92-4.07h-.06c.08,1.54.11,3.16.11,5v3.46H212"/><polyline class="cls-2" points="225.88 46.05 222.89 46.05 222.89 43.87 231.38 43.87 231.38 46.05 228.37 46.05 228.37 55.37 225.88 55.37 225.88 46.05"/><polyline class="cls-2" points="239.69 50.51 235.62 50.51 235.62 53.23 240.16 53.23 240.16 55.37 233.13 55.37 233.13 43.87 239.93 43.87 239.93 46.01 235.62 46.01 235.62 48.4 239.69 48.4 239.69 50.51"/><path class="cls-2" d="M242.27,44a20.47,20.47,0,0,1,3.33-.24,5.47,5.47,0,0,1,3.57.9,3,3,0,0,1,1,2.42,3,3,0,0,1-1.95,2.82v0a2.85,2.85,0,0,1,1.48,2.13c.34,1.31.67,2.82.88,3.26h-2.55a14.85,14.85,0,0,1-.76-2.68c-.31-1.45-.79-1.82-1.82-1.84h-.74v4.52h-2.47V44M244.74,49h1c1.24,0,2-.65,2-1.65s-.69-1.59-1.83-1.59a4.82,4.82,0,0,0-1.14.09Z"/><path class="cls-2" d="M252.39,55.37V43.87h2.92l2.29,4.22A36.07,36.07,0,0,1,259.41,52h0c-.15-1.52-.19-3.08-.19-4.82V43.87h2.29v11.5h-2.62l-2.37-4.43a42.29,42.29,0,0,1-1.92-4.07h-.06c.08,1.54.12,3.16.12,5v3.46h-2.3"/><path class="cls-2" d="M266.67,52.42l-.78,2.95h-2.57l3.35-11.5H270l3.44,11.5h-2.71l-.85-2.95h-3.17m2.81-1.94L268.79,48c-.2-.69-.39-1.54-.55-2.22h0c-.16.68-.33,1.55-.51,2.22L267,50.48Z"/><polyline class="cls-2" points="277.4 46.05 274.42 46.05 274.42 43.87 282.91 43.87 282.91 46.05 279.89 46.05 279.89 55.37 277.4 55.37 277.4 46.05"/><rect class="cls-2" x="284.65" y="43.87" width="2.5" height="11.5"/><path class="cls-2" d="M299.83,49.5c0,3.79-2.18,6.06-5.42,6.06s-5.2-2.58-5.2-5.87c0-3.45,2.13-6,5.38-6s5.24,2.64,5.24,5.83m-8,.14c0,2.27,1,3.86,2.69,3.86s2.66-1.68,2.66-3.91-.94-3.86-2.66-3.86S291.85,47.4,291.85,49.64Z"/><path class="cls-2" d="M301.87,55.37V43.87h2.92l2.29,4.22A36.07,36.07,0,0,1,308.89,52h0c-.15-1.52-.2-3.08-.2-4.82V43.87H311v11.5H308.4L306,50.94a38,38,0,0,1-1.92-4.07h-.07c.08,1.54.12,3.16.12,5v3.46h-2.3"/><path class="cls-2" d="M316.15,52.42l-.78,2.95h-2.58l3.36-11.5h3.28l3.45,11.5h-2.71l-.85-2.95h-3.17M319,50.48,318.27,48c-.19-.69-.39-1.54-.56-2.22h0c-.16.68-.33,1.55-.51,2.22l-.65,2.44Z"/><polyline class="cls-2" points="324.75 43.87 327.25 43.87 327.25 53.19 331.63 53.19 331.63 55.37 324.75 55.37 324.75 43.87"/><path class="cls-2" d="M339.81,52.42,339,55.37h-2.57l3.36-11.5h3.28l3.44,11.5h-2.7L343,52.42h-3.16m2.8-1.94L341.92,48c-.2-.69-.39-1.54-.56-2.22h0c-.16.68-.33,1.55-.51,2.22l-.65,2.44Z"/><rect class="cls-2" x="348.4" y="43.87" width="2.49" height="11.5"/><path class="cls-2" d="M353.46,44a20.56,20.56,0,0,1,3.33-.24,5.49,5.49,0,0,1,3.58.9,3,3,0,0,1,1,2.42,3,3,0,0,1-1.95,2.82v0a2.84,2.84,0,0,1,1.47,2.13c.35,1.31.68,2.82.89,3.26h-2.56a16.15,16.15,0,0,1-.75-2.68c-.32-1.45-.79-1.82-1.82-1.84h-.74v4.52h-2.48V44M355.94,49h1c1.24,0,2-.65,2-1.65s-.69-1.59-1.84-1.59a4.78,4.78,0,0,0-1.13.09Z"/><path class="cls-2" d="M363.59,44a19.23,19.23,0,0,1,3.37-.24,5.17,5.17,0,0,1,3.38.92,3.37,3.37,0,0,1,1.18,2.66,3.66,3.66,0,0,1-1,2.73,5.1,5.1,0,0,1-3.6,1.21,4.22,4.22,0,0,1-.85-.07v4.13h-2.47V44m2.47,5.21a3.15,3.15,0,0,0,.84.07c1.33,0,2.15-.7,2.15-1.85s-.71-1.69-2-1.69a4.49,4.49,0,0,0-1,.08Z"/><path class="cls-2" d="M383.63,49.5c0,3.79-2.18,6.06-5.43,6.06S373,53,373,49.69c0-3.45,2.13-6,5.38-6s5.25,2.64,5.25,5.83m-8,.14c0,2.27,1,3.86,2.69,3.86S381,51.82,381,49.59s-.93-3.86-2.66-3.86S375.64,47.4,375.64,49.64Z"/><path class="cls-2" d="M385.67,44a20.42,20.42,0,0,1,3.32-.24,5.49,5.49,0,0,1,3.58.9,3,3,0,0,1,1,2.42,3,3,0,0,1-2,2.82v0a2.85,2.85,0,0,1,1.48,2.13c.34,1.31.67,2.82.88,3.26h-2.56a16.15,16.15,0,0,1-.75-2.68c-.31-1.45-.79-1.82-1.82-1.84h-.74v4.52h-2.47V44M388.14,49h1c1.25,0,2-.65,2-1.65s-.69-1.59-1.84-1.59a4.78,4.78,0,0,0-1.13.09Z"/><polyline class="cls-2" points="397.94 46.05 394.95 46.05 394.95 43.87 403.44 43.87 403.44 46.05 400.43 46.05 400.43 55.37 397.94 55.37 397.94 46.05"/><path class="cls-3" d="M396.9,23.33l-.06,0h-3.51s-.05,0-.05.06a34.74,34.74,0,0,1-3.48,12.28.06.06,0,0,0,0,.06.05.05,0,0,0,.05,0h3.43l.06,0a35.84,35.84,0,0,0,3.57-12.34s0,0,0-.05"/><path class="cls-3" d="M391.09,23.33a.08.08,0,0,0-.07,0h-3.56a.09.09,0,0,0-.07.06,29.21,29.21,0,0,1-3.85,12.27.11.11,0,0,0,0,.08.07.07,0,0,0,.06,0H387l.06,0s3-4.4,4-12.33v-.05"/><path class="cls-3" d="M401,19.9h-7.41l6.36-6.42a1.32,1.32,0,0,0,.32-.84c0-.5-.37-1-1.24-1H385.44a.09.09,0,0,0-.05,0s0,0,0,0v1.76s0,0,0,0,0,0,.05,0h8.84l-6.13,6.4h-2.86s0,0,0,0l0,0v1.74a.17.17,0,0,0,0,0s0,0,0,0h13.63c.14,0,.14.1.14.1v12a.14.14,0,0,1-.14.14h-2.68a.16.16,0,0,0,0,0v1.75a.13.13,0,0,0,0,0H401a2.21,2.21,0,0,0,2.32-2.18l0-2.28V22.08A2.25,2.25,0,0,0,401,19.9"/><path class="cls-3" d="M383.36,18.14h0l0,0V16.33l0,0h-3.13V10.82l0-.05a0,0,0,0,0,0,0H376v5.53H371.9v1.85H376V31.25A34.77,34.77,0,0,1,372,32.37s-.05,0-.05.06v3.19s0,0,0,0H372a34.42,34.42,0,0,0,11.41-4.6l0,0V28.12s0-.06,0-.06a0,0,0,0,0-.07,0s-1.2.67-3.05,1.5V18.14h3.09"/><path class="cls-3" d="M346.91,16.57s0,0,0,0V14.8s0,0,0-.05a.09.09,0,0,0-.06,0h-3.66V10.79s0,0,0,0a.05.05,0,0,0,0,0H339s0,0-.05,0h0v4h-4.6l-.05,0s0,0,0,0v1.72a.2.2,0,0,1,0,.06h4.65V35.73l0,0h4.18l0,0a0,0,0,0,0,0,0V16.59h3.66l.06,0"/><path class="cls-3" d="M338.47,18.12h-2.55s-.06,0-.06.05l-1.27,15.07a.05.05,0,0,0,0,0s0,0,.06,0h2.53a.09.09,0,0,0,.07-.06l1.27-15.08s0,0,0,0a.05.05,0,0,0,0,0"/><path class="cls-3" d="M346.19,18.13h-2.55s0,0,0,0,0,0,0,0l.88,10.14a.06.06,0,0,0,.06.06h2.54l.06,0s0,0,0,0l-.86-10.16s0-.05-.07-.05"/><path class="cls-3" d="M366.26,34l0,0h-2.15a.17.17,0,0,1-.19-.17V13.83a2.31,2.31,0,0,0-2.46-2.23H352a2.27,2.27,0,0,0-2.27,2.25c0,2.14,0,10.8,0,11a38.84,38.84,0,0,1-1.57,10.88.11.11,0,0,0,0,.08l.06,0h3.56l.06,0a30.37,30.37,0,0,0,2.09-11.38c0-.24,0-10.57,0-10.7a.21.21,0,0,1,.22-.21h5.37s.19,0,.19.21v20A2.17,2.17,0,0,0,362,35.8h4.23a.07.07,0,0,0,0,0V34s0,0,0,0"/><path class="cls-3" d="M206.82,26.93l-.06-.05h-2.83s0,0-.05,0a.06.06,0,0,0,0,.05l2.45,8.71.06,0h2.83a.08.08,0,0,0,.06,0s0,0,0-.06l-2.44-8.69"/><path class="cls-3" d="M197.13,26.9a.09.09,0,0,0,0,0h-2.82l-.07.05-2.45,8.68s0,0,0,.06a0,0,0,0,0,.05,0h2.84l.06,0,2.45-8.7s0,0,0-.05"/><path class="cls-3" d="M190.5,26.9s0,0,0,0h-4s-.09,0-.08.05l-.76,8.7,0,.05h4.1a.08.08,0,0,0,.07,0l.76-8.7s0,0,0,0"/><path class="cls-3" d="M217.12,14.67h0l0,0V12.88l0,0a0,0,0,0,0,0,0H212V10.72a.14.14,0,0,0,0-.07h-4.22s0,0,0,0v2.13h-14V10.7a.1.1,0,0,0,0-.06h-4.22l0,0v2.11h-5s0,0,0,0a0,0,0,0,0,0,0v1.74a.06.06,0,0,0,0,.05h14v1.5H186.32a0,0,0,0,0,0,0V18s0,0,0,0h.05l12,0v1.66h-13.7l0,0s0,0,0,0v1.73s0,0,0,.05l0,0h13.7v1.66h-12s0,0-.05,0a0,0,0,0,0,0,0V25a.06.06,0,0,0,0,0l.05,0h12v10.6h4.23a0,0,0,0,0,0,0V25.08H215l0,0s0,0,0,0V21.57h2.06a.06.06,0,0,0,0,0s0,0,0-.05V19.77s0,0,0-.05h-2.11V18.36a2.25,2.25,0,0,0-2.36-2.18H202.63V14.66h14.49m-14.49,5V18h8a.12.12,0,0,1,.13.14V19.7Zm8.15,1.87v1.66h-8.15V21.56Z"/><path class="cls-3" d="M212.7,26.88h-1.85l0,0a0,0,0,0,1,0,0v8.71l0,0s0,0,0,0H215s0,0,0,0a.07.07,0,0,0,0,0V29a2.19,2.19,0,0,0-2.36-2.07"/><path class="cls-3" d="M252.5,12.86l0,0h-4.15s0,0-.05,0V33.09s0,.13-.14.13H240V10.72l0,0,0,0h-4.14s0,0-.05,0V33.21h-8.14a.13.13,0,0,1-.13-.14V12.89l0-.05s0,0,0,0h-4.13s0,0,0,0a0,0,0,0,0,0,0v20a2.24,2.24,0,0,0,2.34,2.19h24.64a2.22,2.22,0,0,0,2.33-2.18v-20"/><path class="cls-3" d="M284.68,15.45a.06.06,0,0,0-.05,0H265.94a.08.08,0,0,0,0,0v1.76a0,0,0,0,0,0,0s0,0,.06,0h6.68v3.77h-5.26a.06.06,0,0,0,0,0v1.74s.05.07.06.07h5.22V29.4H266l-.05,0a.11.11,0,0,0,0,.06V31.2a.18.18,0,0,0,0,.05h17.23A1.32,1.32,0,0,0,284.6,30a1.16,1.16,0,0,0-.11-.52l-1.27-4.35-.05-.05H280l-.06,0s0,.05,0,.06l1.25,4.27H277V22.91h6.26a.1.1,0,0,0,0,0V21.12s0,0,0,0a0,0,0,0,0,0,0H277V17.29h7.68s0,0,.05,0,0,0,0,0V15.49s0,0,0,0"/><path class="cls-3" d="M287.86,11.56h-25.3a2.25,2.25,0,0,0-2.35,2.19V35.07a.11.11,0,0,0,.06,0l29.86,0a.06.06,0,0,0,.05,0s0,0,0,0V13.77a2.27,2.27,0,0,0-2.36-2.21m-23.44,2h0s0-.14.15-.14h21.2a.13.13,0,0,1,.15.14V33.25l-21.5,0V13.55Z"/><path class="cls-3" d="M326.8,11.6h0l-16.1,0s0,0-.05,0a.08.08,0,0,0,0,0v1.74s0,0,0,.05a.06.06,0,0,0,.05,0H326.8V11.65a.13.13,0,0,0,0-.05"/><path class="cls-3" d="M322.53,21.2a0,0,0,0,1,0,0h3.6a.07.07,0,0,1,.08.06,47.55,47.55,0,0,0,3,12s0,0,0,.06,0,0-.06,0h-3.47l-.06,0a50.26,50.26,0,0,1-3.12-12.06"/><path class="cls-3" d="M315.34,21.2l0,0h-3.61c-.05,0-.06,0-.07.06a47.8,47.8,0,0,1-3,12s0,0,0,.06,0,0,.06,0h3.47l.07,0a49.72,49.72,0,0,0,3.12-12.06"/><path class="cls-3" d="M328,18.86s0,0,0,0V17.08a.09.09,0,0,0,0,0H309.46s0,0-.06,0,0,0,0,.06V18.8a.2.2,0,0,1,0,.05l.05,0H317V33.79s0,.14-.14.14h-2.68l0,0v1.75l0,0s0,0,0,0h4.69a2.24,2.24,0,0,0,2.34-2.19V18.87H328"/><path class="cls-3" d="M308.69,29.07a26.11,26.11,0,0,0-2.42-8.35,34.12,34.12,0,0,0,2.21-9c0-.11-.09-.1-.09-.1h-11l0,0a0,0,0,0,0,0,0l0,24.07s0,0,0,.05h4s0,0,0,0V31.8h5.17a2.21,2.21,0,0,0,2.23-2.74m-4.09.86h-3.31l0-16.5h2.94c.07,0,.07.05.06.08a33,33,0,0,1-1.52,7.33,27.81,27.81,0,0,1,1.93,8.94C304.72,29.94,304.6,29.93,304.6,29.93Z"/><path class="cls-3" d="M179.75,11.42s0,0,0,0H175.6s-.06,0-.06,0a0,0,0,0,0,0,0V35.62s0,0,0,0,0,0,.06,0h4.11s0,0,0,0l0,0V11.46l0,0"/><path class="cls-3" d="M168.57,11.41h-4.21a.08.08,0,0,0,0,0V35.61a.14.14,0,0,0,0,0s0,0,0,0h4.17l0,0V11.46l0-.05"/><path class="cls-3" d="M152.39,16.36a.09.09,0,0,0,0,0h-2.76s-.05,0-.07.06l-1.92,13.26s0,0,0,.05,0,0,.06,0h2.76a.06.06,0,0,0,0-.06l1.92-13.26a.18.18,0,0,0,0-.06"/><path class="cls-3" d="M161.12,16.4a.07.07,0,0,0-.07-.06h-2.9a.09.09,0,0,0-.06,0s0,0,0,.05l2.67,13.24s0,.05.06.05h2.91a.05.05,0,0,0,0,0,.07.07,0,0,0,0-.06L161.12,16.4"/><path class="cls-3" d="M172.28,16.4s0,0-.05,0h-2.89a.06.06,0,0,0-.06,0s0,0,0,0l2.67,13.25s0,0,.07,0h2.9l0,0s0,0,0-.07L172.28,16.4"/><path class="cls-3" d="M153.2,15.53v9.11a38.7,38.7,0,0,1-1.56,10.89s0,0,0,.08h3.62l.06,0a30.39,30.39,0,0,0,2.08-11.38V15.53H153.2"/><path class="cls-3" d="M157.4,22V11.41s0,0-.06,0h-4.13a.1.1,0,0,0,0,0V22h4.2"/><path class="cls-3" d="M123.24,14.61a.09.09,0,0,0,0,0h-3.68v-4s0,0-.05,0h-4.13l0,0s0,0,0,0v3.95h-4.59s0,0,0,0l0,0v1.74l0,0,0,0h4.59V35.58s0,0,0,0,0,0,.06,0h4.17V16.45h3.68l0,0,0,0V14.65s0,0,0,0"/><path class="cls-3" d="M114.85,18a0,0,0,0,0,0,0h-2.54a.07.07,0,0,0-.07.06l-1.26,15.08s0,0,0,0,0,0,0,0h2.54s.06,0,.07-.07L114.87,18l0,0"/><path class="cls-3" d="M122.6,18s0-.06-.08-.06H120s0,0-.06,0,0,0,0,0l.87,10.15s0,0,.06,0h2.54s0,0,.06,0a0,0,0,0,0,0,0L122.6,18"/><path class="cls-3" d="M142.18,12.78l-.05,0h-6.79v-2.1a.14.14,0,0,0,0,0s0,0,0,0h-4.13l0,0,0,0v2.12h-6.52s0,0,0,0v1.74a.21.21,0,0,0,0,.06s0,0,0,0l17.53,0,.05,0V12.78"/><path class="cls-3" d="M126.05,24.64a38.85,38.85,0,0,1-1.57,10.89.25.25,0,0,0,0,.08h3.63l0,0a30.21,30.21,0,0,0,2.09-11.38V23h-4.21v1.6"/><path class="cls-3" d="M142.61,33.83s0,0-.06,0h-2.16c-.18,0-.17-.17-.18-.17V20.12a2.29,2.29,0,0,0-2.47-2.22H128.3A2.26,2.26,0,0,0,126,20.14v3.68h4.19V20a.19.19,0,0,1,.21-.2h5.39a.19.19,0,0,1,.18.2V33.51h0a2.17,2.17,0,0,0,2.34,2.15h4.21l.06,0s0,0,0,0V33.86s0,0,0,0"/></g></g></svg>